<?xml version="1.0" encoding="UTF-8"?>
<svg id="Layer_2" data-name="Layer 2" xmlns="http://www.w3.org/2000/svg" viewBox="0 0 545.22 222.26">
  <defs>
    <style>
      .cls-1, .cls-2 {
        isolation: isolate;
      }

      .cls-3, .cls-4, .cls-5 {
        fill: #ffffff;
      }

      .cls-2 {
        fill: #ffffff;
      }

      .cls-2, .cls-4, .cls-5 {
        font-family: Poppins-Regular, Poppins;
        font-size: 28.77px;
      }

      .cls-2, .cls-5 {
        letter-spacing: .19em;
      }

      .cls-6 {
        fill: #ffffff;
      }

      .cls-4 {
        letter-spacing: .19em;
      }
    </style>
  </defs>
  <g id="Layer_1-2" data-name="Layer 1">
    <g>
      <g>
        <path class="cls-6" d="M115.36,120.12c0,3.89.07,11.4.07,13.84,0,4.23-11.15,6.83-15.8,10.22-4.65,3.38,7.34-1.33,10.72,3.75,3.39,5.08,2.96,10.57,5.08,11,2.11.43,5.25-11.15,11.01-11,6.52.15,12.85,3.33-3.33-10.64-1.59-1.69-.08-10.23.16-15.16"/>
        <path class="cls-6" d="M172.17,120.12c0,3.89-.07,11.4-.07,13.84,0,4.23,11.15,6.83,15.8,10.22,4.65,3.38-7.34-1.33-10.72,3.75-3.39,5.08-2.96,10.57-5.08,11-2.11.43-5.25-11.15-11.01-11-6.52.15-12.85,3.33,3.33-10.64,1.59-1.69.08-10.23-.16-15.16"/>
        <path class="cls-3" d="M2.68,25.38c0-4.4,1.68-8.22,5.06-11.44,3.36-3.24,7.46-5.85,12.27-7.85,4.81-1.99,9.83-3.51,15.06-4.53,5.23-1.04,9.7-1.55,13.41-1.55s7.46.62,11.25,1.86c3.78,1.24,7.12,2.99,10.01,5.26,2.88,2.27,5.11,5.15,6.7,8.67,1.58,3.51,2.1,7.52,1.56,12.07-.7,7.01-3,13.2-6.92,18.57-3.91,5.36-8.73,9.86-14.44,13.51-5.71,3.65-11.9,6.4-18.57,8.25-6.67,1.86-13.1,2.78-19.28,2.78,0,5.09.2,10.14.61,15.17.41,5.02.86,10.07,1.34,15.16.48,5.09.93,10.14,1.34,15.17.41,5.02.62,10.08.62,15.17,0,1.51-.14,2.93-.41,4.23-.28,1.31-1.52,2.3-3.71,2.99l-4.13-3.92c0-.14-.21-2.06-.62-5.78-.41-3.71-1-8.53-1.76-14.44-.75-5.92-1.58-12.62-2.47-20.12-.9-7.49-1.76-15.02-2.58-22.59-.83-7.56-1.62-14.85-2.38-21.87-.75-7.01-1.41-13.06-1.96-18.15v-6.61ZM14.24,32.8c0,2.89.03,5.58.1,8.05.07,2.48.27,4.88.62,7.23.34,2.34.79,4.74,1.34,7.22.55,2.47,1.3,5.3,2.27,8.45,4.26-.69,9.35-1.99,15.27-3.91,5.91-1.93,11.59-4.54,17.02-7.85,5.43-3.3,10-7.12,13.72-11.45,3.71-4.33,5.57-9.17,5.57-14.54,0-2.89-.69-5.47-2.06-7.74-1.38-2.27-3.14-4.16-5.26-5.68-2.14-1.51-4.51-2.68-7.12-3.51-2.62-.82-5.16-1.23-7.63-1.23-3.99,0-8.01.48-12.07,1.44-4.05.97-7.7,2.48-10.93,4.54-3.23,2.06-5.85,4.68-7.84,7.84-2,3.17-2.99,6.88-2.99,11.14"/>
        <path class="cls-3" d="M112.34,19.18c1.65,0,3.06-.08,4.23-.27,1.17-.17,2.17.7,3,2.65.41,7.95.89,16.03,1.44,24.24.55,8.21,1.09,16.48,1.65,24.77.55,8.31.93,16.65,1.14,25.04.21,8.4.24,16.56.1,24.51,0,1.06-.21,1.72-.61,1.99-.41.27-1,.35-1.76.27-.75-.09-1.65-.18-2.68-.27-1.04-.09-2.17.03-3.41.39l-3.09-103.33Z"/>
        <path class="cls-3" d="M161.56,19.18c1.52,0,2.83-.08,3.91-.27,1.08-.17,2.01.7,2.77,2.65.38,7.95.83,16.03,1.34,24.24.51,8.21,1.01,16.48,1.52,24.77.51,8.31.87,16.65,1.05,25.04.19,8.4.22,16.56.1,24.51,0,1.06-.19,1.72-.57,1.99-.38.27-.93.35-1.62.27-.7-.09-1.52-.18-2.48-.27-.96-.09-2.01.03-3.15.39l-2.87-103.33Z"/>
        <path class="cls-3" d="M259.15,89.54c-2-2.24-4.7-5-8.1-8.25-3.4-3.27-7.03-6.8-10.9-10.63-3.86-3.82-7.86-7.77-11.99-11.84-4.13-4.08-7.96-8.03-11.49-11.85-3.53-3.82-6.63-7.39-9.29-10.71-2.67-3.31-4.6-6.14-5.8-8.49l4-2.75c4.92,4.08,9.22,7.82,12.89,11.24,3.67,3.42,6.96,6.63,9.9,9.64,2.93,3,5.6,5.88,8,8.64,2.4,2.75,4.9,5.53,7.5,8.34,2.6,2.8,5.43,5.65,8.49,8.55,3.07,2.91,6.66,5.99,10.8,9.26.8-2.85,1.56-6.04,2.3-9.56.73-3.52,1.5-7.16,2.3-10.93.8-3.77,1.67-7.62,2.6-11.54.93-3.93,2-7.7,3.2-11.32,1.2-3.61,2.49-7,3.9-10.17,1.4-3.16,3.03-5.86,4.9-8.1.13-.11.43-.16.9-.16h1.1c.4,0,.96.05,1.69.16.74.1,1.43.28,2.1.53.66.26,1.19.59,1.6.99.4.41.46.87.2,1.38-1.47,2.35-2.97,5.5-4.5,9.48-1.53,3.98-3,8.44-4.4,13.38-1.4,4.95-2.69,10.3-3.9,16.06-1.19,5.75-2.3,11.59-3.3,17.5-1,5.91-1.9,11.8-2.69,17.66-.8,5.86-1.4,11.34-1.81,16.43-.4,5.1-.56,9.74-.5,13.91.07,4.19.36,7.54.9,10.09-.27,1.12-.51,1.96-.7,2.52-.2.56-.63.99-1.3,1.3-.67.31-1.67.48-2.99.54-1.33.05-3.2.07-5.6.07v-51.37Z"/>
        <path class="cls-3" d="M397.22,87.27c-5.5,13.89-10.93,24.62-16.29,32.18-5.37,7.57-10.6,12.62-15.69,15.17-5.09,2.54-9.9,2.86-14.44.93-4.54-1.92-8.7-5.47-12.48-10.62-3.79-5.15-7.02-11.65-9.7-19.49-2.68-7.84-4.81-16.43-6.4-25.79-1.58-9.35-2.41-19.15-2.48-29.4-.07-10.24.72-20.31,2.37-30.22l8.05.82c-1.52,17.61-1.68,32.9-.51,45.9,1.17,12.99,3.07,23.83,5.68,32.49,2.61,8.66,5.64,15.27,9.07,19.81,3.44,4.54,6.74,7.15,9.9,7.84,4.67,0,8.83-1.24,12.49-3.71,3.64-2.48,6.87-5.71,9.69-9.7,2.82-3.99,5.23-8.53,7.23-13.62,1.99-5.09,3.6-10.25,4.85-15.48,1.23-5.22,2.12-10.28,2.68-15.16.55-4.88.83-9.11.83-12.69,0-4.67-.14-8.83-.41-12.48-.27-3.65-.72-7.25-1.34-10.83-.62-3.58-1.31-7.25-2.06-11.04-.75-3.78-1.62-8.15-2.58-13.1l10.11-7.43c3.16,19.95,5.88,37.03,8.15,51.27,2.27,14.24,4.23,26.13,5.88,35.69,1.65,9.56,2.96,17.19,3.92,22.9.96,5.71,1.75,10.19,2.37,13.41.61,3.23,1.04,5.5,1.23,6.81.21,1.31.31,2.37.31,3.2h-8.46l-11.97-47.66Z"/>
        <path class="cls-3" d="M524.79,87.27c-5.5,13.89-10.93,24.62-16.29,32.18-5.37,7.57-10.6,12.62-15.69,15.17-5.09,2.54-9.9,2.86-14.44.93-4.54-1.92-8.7-5.47-12.48-10.62-3.79-5.15-7.02-11.65-9.7-19.49-2.69-7.84-4.81-16.43-6.4-25.79-1.58-9.35-2.41-19.15-2.48-29.4-.07-10.24.72-20.31,2.37-30.22l8.05.82c-1.52,17.61-1.68,32.9-.51,45.9,1.17,12.99,3.07,23.83,5.68,32.49,2.61,8.66,5.64,15.27,9.07,19.81,3.44,4.54,6.74,7.15,9.9,7.84,4.67,0,8.83-1.24,12.49-3.71,3.64-2.48,6.87-5.71,9.69-9.7,2.82-3.99,5.23-8.53,7.23-13.62,1.99-5.09,3.6-10.25,4.85-15.48,1.23-5.22,2.12-10.28,2.68-15.16.55-4.88.83-9.11.83-12.69,0-4.67-.14-8.83-.41-12.48-.27-3.65-.72-7.25-1.34-10.83-.62-3.58-1.31-7.25-2.06-11.04-.75-3.78-1.62-8.15-2.58-13.1l10.11-7.43c3.16,19.95,5.88,37.03,8.15,51.27,2.27,14.24,4.23,26.13,5.88,35.69,1.65,9.56,2.96,17.19,3.92,22.9.96,5.71,1.75,10.19,2.37,13.41.61,3.23,1.04,5.5,1.23,6.81.21,1.31.31,2.37.31,3.2h-8.46l-11.97-47.66Z"/>
      </g>
      <g class="cls-1">
        <text class="cls-5" transform="translate(0 205.61)"><tspan x="0" y="0">DİJİTAL</tspan></text>
        <text class="cls-2" transform="translate(144.07 205.61)"><tspan x="0" y="0">BAĞLANTI</tspan></text>
        <text class="cls-4" transform="translate(333.9 205.8)"><tspan x="0" y="0">EKOSİSTEMİ</tspan></text>
      </g>
    </g>
  </g>
</svg>
