<?xml version="1.0" encoding="UTF-8"?>
<svg id="Layer_2" data-name="Layer 2" xmlns="http://www.w3.org/2000/svg" viewBox="0 0 27.56 63.69">
  <defs>
    <style>
      .cls-1 {
        stroke: #f2f2f2;
        stroke-miterlimit: 10;
        stroke-width: .32px;
      }

      .cls-1, .cls-2 {
        fill: #525f6b;
      }

      .cls-3 {
        fill: #f47622;
      }
    </style>
  </defs>
  <g id="Layer_1-2" data-name="Layer 1">
    <g>
      <g>
        <path class="cls-3" d="M6.61,61.93c0,.18,0,.52,0,.63,0,.19-.5.31-.71.46-.21.15.33-.06.48.17.15.23.13.48.23.5.1.02.24-.5.5-.5.29,0,.58.15-.15-.48-.07-.08,0-.46,0-.69"/>
        <path class="cls-3" d="M9.18,61.93c0,.18,0,.52,0,.63,0,.19.5.31.71.46.21.15-.33-.06-.48.17-.15.23-.13.48-.23.5-.1.02-.24-.5-.5-.5-.29,0-.58.15.15-.48.07-.08,0-.46,0-.69"/>
        <path class="cls-2" d="M1.52,57.65c0-.2.08-.37.23-.52.15-.15.34-.26.55-.35.22-.09.44-.16.68-.2.24-.05.44-.07.61-.07s.34.03.51.08c.17.06.32.14.45.24.13.1.23.23.3.39.07.16.09.34.07.55-.03.32-.14.6-.31.84-.18.24-.39.45-.65.61-.26.16-.54.29-.84.37-.3.08-.59.13-.87.13,0,.23,0,.46.03.69.02.23.04.46.06.69s.04.46.06.69c.02.23.03.46.03.69,0,.07,0,.13-.02.19-.01.06-.07.1-.17.14l-.19-.18s0-.09-.03-.26-.05-.39-.08-.65c-.03-.27-.07-.57-.11-.91-.04-.34-.08-.68-.12-1.02-.04-.34-.07-.67-.11-.99-.03-.32-.06-.59-.09-.82v-.3ZM2.04,57.99c0,.13,0,.25,0,.36,0,.11.01.22.03.33.02.11.04.21.06.33.02.11.06.24.1.38.19-.03.42-.09.69-.18.27-.09.52-.21.77-.35.25-.15.45-.32.62-.52.17-.2.25-.41.25-.66,0-.13-.03-.25-.09-.35-.06-.1-.14-.19-.24-.26-.1-.07-.2-.12-.32-.16-.12-.04-.23-.06-.35-.06-.18,0-.36.02-.55.07-.18.04-.35.11-.49.21s-.26.21-.35.35c-.09.14-.14.31-.14.5"/>
        <path class="cls-2" d="M6.47,57.37c.07,0,.14,0,.19-.01.05,0,.1.03.14.12.02.36.04.72.07,1.1.02.37.05.74.07,1.12.02.38.04.75.05,1.13,0,.38.01.75,0,1.11,0,.05,0,.08-.03.09-.02.01-.05.02-.08.01-.03,0-.07,0-.12-.01-.05,0-.1,0-.15.02l-.14-4.67Z"/>
        <path class="cls-2" d="M8.7,57.37c.07,0,.13,0,.18-.01.05,0,.09.03.13.12.02.36.04.72.06,1.1.02.37.05.74.07,1.12.02.38.04.75.05,1.13,0,.38.01.75,0,1.11,0,.05,0,.08-.03.09-.02.01-.04.02-.07.01-.03,0-.07,0-.11-.01-.04,0-.09,0-.14.02l-.13-4.67Z"/>
        <path class="cls-2" d="M13.11,60.55c-.09-.1-.21-.23-.37-.37-.15-.15-.32-.31-.49-.48-.17-.17-.36-.35-.54-.54-.19-.18-.36-.36-.52-.54-.16-.17-.3-.33-.42-.48-.12-.15-.21-.28-.26-.38l.18-.12c.22.18.42.35.58.51.17.15.31.3.45.44.13.14.25.27.36.39.11.12.22.25.34.38.12.13.25.26.38.39.14.13.3.27.49.42.04-.13.07-.27.1-.43.03-.16.07-.32.1-.49.04-.17.08-.34.12-.52.04-.18.09-.35.14-.51.05-.16.11-.32.18-.46.06-.14.14-.26.22-.37,0,0,.02,0,.04,0h.05s.04,0,.08,0c.03,0,.06.01.1.02.03.01.05.03.07.04.02.02.02.04,0,.06-.07.11-.13.25-.2.43-.07.18-.14.38-.2.6-.06.22-.12.47-.18.73-.05.26-.1.52-.15.79-.05.27-.09.53-.12.8-.04.26-.06.51-.08.74-.02.23-.03.44-.02.63,0,.19.02.34.04.46-.01.05-.02.09-.03.11,0,.03-.03.04-.06.06-.03.01-.08.02-.14.02-.06,0-.14,0-.25,0v-2.32Z"/>
        <path class="cls-2" d="M19.35,60.45c-.25.63-.49,1.11-.74,1.45-.24.34-.48.57-.71.69-.23.12-.45.13-.65.04-.21-.09-.39-.25-.56-.48-.17-.23-.32-.53-.44-.88-.12-.35-.22-.74-.29-1.17-.07-.42-.11-.87-.11-1.33,0-.46.03-.92.11-1.37l.36.04c-.07.8-.08,1.49-.02,2.08.05.59.14,1.08.26,1.47.12.39.25.69.41.9.16.21.3.32.45.35.21,0,.4-.06.56-.17.16-.11.31-.26.44-.44.13-.18.24-.39.33-.62.09-.23.16-.46.22-.7.06-.24.1-.46.12-.69.02-.22.04-.41.04-.57,0-.21,0-.4-.02-.56-.01-.16-.03-.33-.06-.49-.03-.16-.06-.33-.09-.5-.03-.17-.07-.37-.12-.59l.46-.34c.14.9.27,1.67.37,2.32.1.64.19,1.18.27,1.61.07.43.13.78.18,1.04.04.26.08.46.11.61.03.15.05.25.06.31,0,.06.01.11.01.14h-.38l-.54-2.15Z"/>
        <path class="cls-2" d="M25.12,60.45c-.25.63-.49,1.11-.74,1.45-.24.34-.48.57-.71.69-.23.12-.45.13-.65.04-.21-.09-.39-.25-.56-.48-.17-.23-.32-.53-.44-.88-.12-.35-.22-.74-.29-1.17-.07-.42-.11-.87-.11-1.33,0-.46.03-.92.11-1.37l.36.04c-.07.8-.08,1.49-.02,2.08.05.59.14,1.08.26,1.47.12.39.25.69.41.9.16.21.3.32.45.35.21,0,.4-.06.56-.17.16-.11.31-.26.44-.44.13-.18.24-.39.33-.62.09-.23.16-.46.22-.7.06-.24.1-.46.12-.69.02-.22.04-.41.04-.57,0-.21,0-.4-.02-.56-.01-.16-.03-.33-.06-.49-.03-.16-.06-.33-.09-.5-.03-.17-.07-.37-.12-.59l.46-.34c.14.9.27,1.67.37,2.32.1.64.19,1.18.27,1.61.07.43.13.78.18,1.04.04.26.08.46.11.61.03.15.05.25.06.31,0,.06.01.11.01.14h-.38l-.54-2.15Z"/>
      </g>
      <g>
        <path class="cls-3" d="M11.7,53.1c-.82-.02-1.27,1.63-1.57,1.57-.31-.06-.25-.84-.73-1.57-.49-.73-2.2-.06-1.54-.54.67-.48,2.27-.85,2.27-1.45v-1.65l.28.06.3.06.35.08c-.03.7-.07,1.68.16,1.93,2.33,2,1.42,1.54.48,1.52"/>
        <path class="cls-3" d="M18.48,53.19c-.49.73-.42,1.51-.73,1.58-.31.06-.75-1.6-1.58-1.58-.93.02-1.84.48.48-1.52.32-.33.15-2.08.14-2.55l.96-.43v2.51c0,.6,1.6.98,2.26,1.46.67.48-1.04-.19-1.53.53"/>
        <path class="cls-1" d="M27.24,44c-.08,1.4-.48,1.99-.94,1.99-.81,0-1.84-1.78-1.91-4.3-.05.2-.1.42-.15.64-.54,1.99-2.01,5.27-5.3,6.97l-.96.43s-2.39.67-3.88.67c-.65,0-1.27-.05-1.85-.14-.12-.03-.25-.06-.35-.08-.11-.02-.22-.05-.3-.06l-.28-.06c-4.23-1.04-6.66-4.54-7.94-8.81-.01,7.26-2.58,5.78-2.93,0C-1.27,21.73,5.08,15.58,6.59,12.54c.71-1.43,1.48-3.11,2.3-5.78.87-2.79,2.83-5.79,4.88-6.39,1.61-.48,3.28-.08,4.55.44.71.28,1.3.61,1.68.83.15.1.28.2.43.3.36.24.75.44,1.17.56.9.24,1.82.23,2.73.22.67-.01,1.16-.14,1.79.23.26.15.74.6.74.92v.54c-.1-.07-.17-.19-.32-.18-.24.02-.65.25-.9.33-.83.28-1.54.3-2.37.45-1.01.2-1.78.9-2.62,1.45-.41.27-.9.53-1.33.85-.14,1.67.15,3.64.62,5.25,1.18,3.18,8.6,9.2,7.29,31.44"/>
      </g>
    </g>
  </g>
</svg>