<?xml version="1.0" encoding="UTF-8"?>
<svg id="Layer_2" data-name="Layer 2" xmlns="http://www.w3.org/2000/svg" viewBox="0 0 169.8 395.99">
  <defs>
    <style>
      .cls-1 {
        fill: #f1f2f2;
      }

      .cls-2 {
        fill: #f47622;
      }
    </style>
  </defs>
  <g id="Layer_1-2" data-name="Layer 1">
    <g>
      <g>
        <path class="cls-2" d="M40.21,385.05c0,1.1.02,3.21.02,3.9,0,1.19-3.14,1.92-4.45,2.88-1.31.95,2.07-.38,3.02,1.06.96,1.43.83,2.98,1.43,3.1.6.12,1.48-3.14,3.1-3.1,1.84.04,3.62.94-.94-3-.45-.48-.02-2.88.04-4.27"/>
        <path class="cls-2" d="M56.22,385.05c0,1.1-.02,3.21-.02,3.9,0,1.19,3.14,1.92,4.45,2.88,1.31.95-2.07-.38-3.02,1.06-.96,1.43-.83,2.98-1.43,3.1-.6.12-1.48-3.14-3.1-3.1-1.84.04-3.62.94.94-3,.45-.48.02-2.88-.04-4.27"/>
        <path class="cls-1" d="M8.46,358.35c0-1.24.47-2.32,1.42-3.23.95-.91,2.1-1.65,3.46-2.21,1.36-.56,2.77-.99,4.24-1.28,1.47-.29,2.73-.44,3.78-.44s2.1.18,3.17.52c1.06.35,2.01.84,2.82,1.48.81.64,1.44,1.45,1.89,2.44.45.99.59,2.12.44,3.4-.2,1.98-.85,3.72-1.95,5.23-1.1,1.51-2.46,2.78-4.07,3.81-1.61,1.03-3.35,1.8-5.23,2.33-1.88.52-3.69.78-5.43.78,0,1.43.06,2.86.17,4.27.12,1.42.24,2.84.38,4.27.14,1.43.26,2.86.38,4.27.12,1.42.18,2.84.18,4.27,0,.43-.04.82-.12,1.19-.08.37-.43.65-1.05.84l-1.16-1.1s-.06-.58-.18-1.63c-.12-1.05-.28-2.4-.5-4.07-.21-1.67-.45-3.56-.7-5.67-.25-2.11-.5-4.23-.73-6.37-.23-2.13-.46-4.18-.67-6.16-.21-1.98-.4-3.68-.55-5.11v-1.86ZM11.71,360.45c0,.82,0,1.57.03,2.27.02.7.08,1.38.18,2.04.1.66.22,1.34.38,2.03.15.7.37,1.49.64,2.38,1.2-.19,2.63-.56,4.3-1.1,1.67-.54,3.26-1.28,4.8-2.21,1.53-.93,2.82-2.01,3.86-3.23,1.05-1.22,1.57-2.59,1.57-4.1,0-.82-.19-1.54-.58-2.18-.39-.64-.89-1.17-1.48-1.6-.6-.43-1.27-.75-2.01-.99-.74-.23-1.45-.35-2.15-.35-1.13,0-2.26.14-3.4.41-1.14.27-2.17.7-3.08,1.28-.91.58-1.65,1.32-2.21,2.21-.56.89-.84,1.94-.84,3.14"/>
        <path class="cls-1" d="M39.36,356.61c.46,0,.86-.02,1.19-.07.33-.05.61.2.85.75.11,2.24.25,4.52.41,6.83.15,2.31.31,4.64.46,6.98.15,2.34.26,4.69.32,7.06.06,2.37.07,4.67.03,6.91,0,.3-.06.48-.17.56-.12.07-.28.1-.5.07-.21-.03-.46-.05-.75-.07-.29-.03-.61,0-.96.11l-.87-29.12Z"/>
        <path class="cls-1" d="M53.23,356.61c.43,0,.8-.02,1.1-.07.3-.05.57.2.78.75.11,2.24.23,4.52.38,6.83.14,2.31.28,4.64.43,6.98.14,2.34.25,4.69.3,7.06.05,2.37.06,4.67.03,6.91,0,.3-.05.48-.16.56-.11.07-.26.1-.46.07-.2-.03-.43-.05-.7-.07-.27-.03-.57,0-.89.11l-.81-29.12Z"/>
        <path class="cls-1" d="M80.73,376.43c-.56-.63-1.32-1.41-2.28-2.33-.96-.92-1.98-1.92-3.07-3-1.09-1.08-2.21-2.19-3.38-3.34-1.16-1.15-2.24-2.26-3.24-3.34-.99-1.08-1.87-2.08-2.62-3.02-.75-.93-1.3-1.73-1.63-2.39l1.13-.78c1.39,1.15,2.6,2.2,3.63,3.17,1.03.96,1.96,1.87,2.79,2.72.83.85,1.58,1.66,2.25,2.43.68.78,1.38,1.56,2.11,2.35.73.79,1.53,1.59,2.39,2.41.86.82,1.88,1.69,3.04,2.61.22-.8.44-1.7.65-2.69.21-.99.42-2.02.65-3.08.23-1.06.47-2.15.73-3.25.26-1.11.56-2.17.9-3.19.34-1.02.7-1.97,1.1-2.87.39-.89.85-1.65,1.38-2.28.04-.03.12-.04.25-.04h.31c.11,0,.27.01.48.04.21.03.4.08.59.15.19.07.34.17.45.28.11.11.13.25.06.39-.41.66-.84,1.55-1.27,2.67-.43,1.12-.85,2.38-1.24,3.77-.39,1.39-.76,2.9-1.1,4.53-.34,1.62-.65,3.27-.93,4.93-.28,1.67-.53,3.33-.76,4.98-.23,1.65-.39,3.19-.51,4.63-.11,1.44-.16,2.74-.14,3.92.02,1.18.1,2.13.25,2.84-.08.32-.14.55-.2.71-.06.16-.18.28-.37.37-.19.09-.47.14-.84.15-.38.01-.9.02-1.58.02v-14.48Z"/>
        <path class="cls-1" d="M119.64,375.8c-1.55,3.91-3.08,6.94-4.59,9.07-1.51,2.13-2.99,3.56-4.42,4.27-1.43.72-2.79.81-4.07.26-1.28-.54-2.45-1.54-3.52-2.99-1.07-1.45-1.98-3.28-2.73-5.49-.76-2.21-1.36-4.63-1.8-7.27-.45-2.63-.68-5.4-.7-8.29-.02-2.89.2-5.72.67-8.51l2.27.23c-.43,4.96-.47,9.27-.14,12.94.33,3.66.86,6.71,1.6,9.16.74,2.44,1.59,4.3,2.56,5.58.97,1.28,1.9,2.02,2.79,2.21,1.32,0,2.49-.35,3.52-1.05,1.03-.7,1.94-1.61,2.73-2.73.79-1.13,1.47-2.4,2.04-3.84.56-1.43,1.02-2.89,1.37-4.36.35-1.47.6-2.9.75-4.27.15-1.38.23-2.57.23-3.58,0-1.32-.04-2.49-.12-3.52-.08-1.03-.2-2.04-.38-3.05-.18-1.01-.37-2.04-.58-3.11-.21-1.06-.46-2.3-.73-3.69l2.85-2.09c.89,5.62,1.66,10.43,2.3,14.45.64,4.01,1.19,7.36,1.66,10.06.46,2.69.83,4.84,1.1,6.45.27,1.61.49,2.87.67,3.78.17.91.29,1.55.35,1.92.06.37.09.67.09.9h-2.38l-3.37-13.43Z"/>
        <path class="cls-1" d="M155.59,375.8c-1.55,3.91-3.08,6.94-4.59,9.07-1.51,2.13-2.99,3.56-4.42,4.27-1.43.72-2.79.81-4.07.26-1.28-.54-2.45-1.54-3.52-2.99-1.07-1.45-1.98-3.28-2.73-5.49-.76-2.21-1.36-4.63-1.8-7.27-.45-2.63-.68-5.4-.7-8.29-.02-2.89.2-5.72.67-8.51l2.27.23c-.43,4.96-.47,9.27-.14,12.94.33,3.66.86,6.71,1.6,9.16.74,2.44,1.59,4.3,2.56,5.58.97,1.28,1.9,2.02,2.79,2.21,1.32,0,2.49-.35,3.52-1.05,1.03-.7,1.94-1.61,2.73-2.73.79-1.13,1.47-2.4,2.04-3.84.56-1.43,1.02-2.89,1.37-4.36.35-1.47.6-2.9.75-4.27.15-1.38.23-2.57.23-3.58,0-1.32-.04-2.49-.12-3.52-.08-1.03-.2-2.04-.38-3.05-.18-1.01-.37-2.04-.58-3.11-.21-1.06-.46-2.3-.73-3.69l2.85-2.09c.89,5.62,1.66,10.43,2.3,14.45.64,4.01,1.19,7.36,1.66,10.06.46,2.69.83,4.84,1.1,6.45.27,1.61.49,2.87.67,3.78.17.91.29,1.55.35,1.92.06.37.09.67.09.9h-2.38l-3.37-13.43Z"/>
      </g>
      <g>
        <path class="cls-2" d="M71.92,329.96c-5.09-.14-7.92,10.19-9.76,9.76-1.91-.35-1.56-5.23-4.53-9.76-3.04-4.53-13.72-.35-9.62-3.4,4.17-2.97,14.15-5.3,14.15-9.05v-10.26l1.77.35,1.84.35,2.19.5c-.21,4.39-.42,10.47.99,12.02,14.5,12.45,8.84,9.62,2.97,9.48"/>
        <path class="cls-2" d="M114.21,330.53c-3.04,4.53-2.62,9.41-4.53,9.83-1.91.35-4.67-9.97-9.83-9.83-5.8.14-11.46,2.97,2.97-9.48,1.98-2.05.92-12.94.85-15.91l6.01-2.69v15.63c0,3.75,9.97,6.08,14.08,9.12,4.17,2.97-6.51-1.2-9.55,3.32"/>
        <path class="cls-1" d="M168.83,273.29c-.5,8.7-2.97,12.38-5.87,12.38-5.02,0-11.46-11.1-11.88-26.81-.28,1.27-.64,2.62-.92,3.96-3.4,12.38-12.52,32.82-33.03,43.43l-6.01,2.69s-14.92,4.17-24.19,4.17c-4.03,0-7.92-.28-11.53-.85-.78-.21-1.56-.35-2.19-.5-.71-.14-1.34-.28-1.84-.35l-1.77-.35c-26.38-6.51-41.52-28.29-49.51-54.89-.07,45.27-16.06,36-18.25,0C-8.92,134.45,30.69,96.11,40.1,77.16c4.46-8.91,9.2-19.38,14.36-36C59.91,23.75,72.07,5.08,84.87,1.33c10.04-2.97,20.44-.5,28.36,2.76,4.46,1.77,8.13,3.82,10.47,5.16.92.64,1.77,1.27,2.69,1.84,2.26,1.49,4.67,2.76,7.29,3.47,5.59,1.49,11.32,1.41,17.05,1.34,4.17-.07,7.21-.85,11.18,1.41,1.63.92,4.6,3.75,4.6,5.73v3.4c-.64-.42-1.06-1.2-1.98-1.13-1.49.14-4.03,1.56-5.59,2.05-5.16,1.77-9.62,1.84-14.78,2.83-6.3,1.27-11.1,5.59-16.34,9.05-2.55,1.7-5.59,3.32-8.28,5.3-.85,10.4.92,22.7,3.89,32.75,7.36,19.8,53.61,57.36,45.41,196"/>
      </g>
    </g>
  </g>
</svg>